<svg class="logo" data-name="logo" xmlns="http://www.w3.org/2000/svg" viewBox="0 0 100 29.27"><path d="M3.51 0H0v28.94h18v-3.18H3.51zm91.61 25.1v3.84H100V25.1zM30.68 7.77c-6.16 0-10.59 4.47-10.59 10.75s4.43 10.75 10.59 10.75 10.62-4.5 10.62-10.75S36.88 7.77 30.68 7.77zm0 18.53c-4.26 0-7.19-3.23-7.19-7.78s2.93-7.77 7.19-7.77 7.24 3.23 7.24 7.77S35 26.3 30.68 26.3zm33.55-15.57l10.32 10.32 2.25-2.25L64 6 43.53 26.46 46 28.94l9.21-9.21 8.39 8.39 2.25-2.25-8.39-8.39zm6.33 18H91.4v-3.3H70.56z"></path></svg>