<svg width="100" height="52" viewBox="0 0 100 52" fill="none" xmlns="http://www.w3.org/2000/svg">
<path d="M2.60781 35.5768C1.94559 35.5768 1.28114 35.3357 0.772254 34.8516C-0.249967 33.8789 -0.258856 32.2942 0.754477 31.313L14.5745 17.9224C15.5878 16.9412 17.2389 16.9327 18.2611 17.9053C19.2834 18.8779 19.2922 20.4627 18.2789 21.4439L4.45892 34.8345C3.95003 35.3293 3.2767 35.5768 2.60559 35.5768H2.60781Z" fill="white"/>
<path d="M16.5589 48.7776C15.8967 48.7776 15.2322 48.5366 14.7233 48.0524L0.774452 34.7897C-0.24777 33.8171 -0.256659 32.2323 0.756674 31.2511C1.77001 30.2679 3.42112 30.2615 4.44334 31.2341L18.3944 44.4989C19.4167 45.4715 19.4256 47.0563 18.4122 48.0375C17.9033 48.5323 17.23 48.7797 16.5589 48.7797V48.7776Z" fill="white"/>
<path opacity="0.5" d="M22.8478 51.0982C22.4167 51.0982 21.9789 50.9959 21.5767 50.7783C20.3211 50.1022 19.8722 48.5771 20.5767 47.372L29.65 31.8228C30.3544 30.6177 31.9433 30.1868 33.1989 30.863C34.4544 31.5391 34.9033 33.0642 34.1989 34.2693L25.1256 49.8185C24.6478 50.6375 23.7611 51.0982 22.8478 51.0982Z" fill="#FF943E"/>
<path opacity="0.5" d="M40.9989 51.0982C40.0855 51.0982 39.1989 50.6375 38.7211 49.8185L29.6478 34.2693C28.9433 33.0642 29.3922 31.5391 30.6478 30.863C31.9056 30.1868 33.4922 30.6177 34.1967 31.8228L43.27 47.372C43.9744 48.5771 43.5255 50.1022 42.27 50.7783C41.8678 50.9959 41.43 51.0982 40.9989 51.0982Z" fill="#FF943E"/>
<path d="M41.0167 51.0982C40.5878 51.0982 40.1522 50.9959 39.75 50.7804C38.4922 50.1086 38.0411 48.5835 38.7411 47.3762L47.7878 31.7887C48.4878 30.5814 50.0767 30.1484 51.3344 30.8203C52.5922 31.4922 53.0433 33.0172 52.3433 34.2245L43.2967 49.8121C42.8189 50.6333 41.9322 51.0982 41.0167 51.0982Z" fill="#000923"/>
<path d="M41.0167 50.9745C40.5878 50.9745 40.1522 50.8721 39.75 50.6567C38.4922 49.9848 38.0411 48.4598 38.7411 47.2525L47.7878 31.6649C48.4878 30.4577 50.0767 30.0247 51.3344 30.6966C52.5922 31.3685 53.0433 32.8935 52.3433 34.1008L43.2967 49.6884C42.8189 50.5095 41.9322 50.9745 41.0167 50.9745Z" fill="#000923"/>
<path d="M83.5744 48.7776C82.9122 48.7776 82.2478 48.5366 81.7389 48.0524C80.7166 47.0798 80.7078 45.495 81.7211 44.5138L95.5411 31.1232C96.5544 30.142 98.2055 30.1335 99.2277 31.1061C100.25 32.0787 100.259 33.6635 99.2455 34.6447L85.4255 48.0353C84.9166 48.5302 84.2455 48.7776 83.5722 48.7776H83.5744Z" fill="white"/>
<path d="M97.3944 35.4509C96.7322 35.4509 96.0678 35.2099 95.5589 34.7257L81.6078 21.4609C80.5855 20.4883 80.5767 18.9035 81.59 17.9224C82.6033 16.9412 84.2544 16.9327 85.2766 17.9053L99.2278 31.1701C100.25 32.1427 100.259 33.7275 99.2455 34.7087C98.7366 35.2035 98.0655 35.4509 97.3922 35.4509H97.3944Z" fill="white"/>
<path opacity="0.5" d="M50.1078 51.0982C48.6678 51.0982 47.5011 49.9784 47.5011 48.5963V2.57366C47.5011 1.19151 48.6678 0.0717163 50.1078 0.0717163C51.5478 0.0717163 52.7144 1.19151 52.7144 2.57366V48.5942C52.7144 49.9763 51.5478 51.0961 50.1078 51.0961V51.0982Z" fill="#00D1F3"/>
<path opacity="0.5" d="M59.2256 51.0982C58.3122 51.0982 57.4256 50.6375 56.9478 49.8185L47.8745 34.2693C47.17 33.0642 47.6189 31.5391 48.8745 30.863C50.1322 30.1868 51.7189 30.6177 52.4233 31.8228L61.4967 47.372C62.2011 48.5771 61.7522 50.1022 60.4967 50.7783C60.0945 50.9959 59.6567 51.0982 59.2256 51.0982Z" fill="#FFD300"/>
<path d="M41.0167 51.0982C40.5878 51.0982 40.1522 50.9959 39.75 50.7804C38.4922 50.1086 38.0411 48.5835 38.7411 47.3762L47.7878 31.7887C48.4878 30.5814 50.0767 30.1484 51.3344 30.8203C52.5922 31.4922 53.0433 33.0172 52.3433 34.2245L43.2967 49.8121C42.8189 50.6333 41.9322 51.0982 41.0167 51.0982Z" fill="white"/>
<path d="M50.0633 35.5128C49.63 35.5128 49.19 35.4083 48.7856 35.1907C47.53 34.5124 47.0856 32.9874 47.7922 31.7823L56.97 16.1371C57.6767 14.932 59.2656 14.5054 60.5211 15.1836C61.7767 15.8619 62.2211 17.387 61.5144 18.5921L52.3367 34.2373C51.8589 35.0542 50.9722 35.5128 50.0611 35.5128H50.0633Z" fill="white"/>
</svg>
