<svg width="100" height="52" viewBox="0 0 100 52" fill="none" xmlns="http://www.w3.org/2000/svg">
<path d="M2.60781 35.505C1.94559 35.505 1.28114 35.264 0.772254 34.7798C-0.249967 33.8072 -0.258856 32.2224 0.754477 31.2413L14.5745 17.8506C15.5878 16.8694 17.2389 16.8609 18.2611 17.8335C19.2833 18.8062 19.2922 20.3909 18.2789 21.3721L4.45892 34.7628C3.95003 35.2576 3.2767 35.505 2.60559 35.505H2.60781Z" fill="#000923"/>
<path d="M16.5589 48.7058C15.8967 48.7058 15.2323 48.4648 14.7234 47.9806L0.774513 34.718C-0.247709 33.7453 -0.256598 32.1606 0.756735 31.1794C1.77007 30.1961 3.42118 30.1897 4.4434 31.1623L18.3945 44.4271C19.4167 45.3998 19.4256 46.9846 18.4123 47.9657C17.9034 48.4606 17.2301 48.708 16.5589 48.708V48.7058Z" fill="#000923"/>
<path opacity="0.5" d="M22.8478 51.0265C22.4167 51.0265 21.9789 50.9241 21.5767 50.7066C20.3211 50.0304 19.8722 48.5054 20.5767 47.3003L29.65 31.7511C30.3544 30.546 31.9433 30.1151 33.1989 30.7912C34.4544 31.4674 34.9033 32.9924 34.1989 34.1976L25.1256 49.7468C24.6478 50.5658 23.7611 51.0265 22.8478 51.0265Z" fill="#FF943E"/>
<path opacity="0.5" d="M40.9989 51.0265C40.0855 51.0265 39.1989 50.5658 38.7211 49.7468L29.6478 34.1976C28.9433 32.9924 29.3922 31.4674 30.6478 30.7912C31.9056 30.1151 33.4922 30.546 34.1967 31.7511L43.27 47.3003C43.9744 48.5054 43.5255 50.0304 42.27 50.7066C41.8678 50.9241 41.43 51.0265 40.9989 51.0265Z" fill="#FF943E"/>
<path d="M41.0167 51.0265C40.5878 51.0265 40.1522 50.9242 39.75 50.7087C38.4922 50.0369 38.0411 48.5118 38.7411 47.3046L47.7878 31.717C48.4878 30.5097 50.0767 30.0767 51.3344 30.7486C52.5922 31.4205 53.0433 32.9455 52.3433 34.1528L43.2967 49.7404C42.8189 50.5616 41.9322 51.0265 41.0167 51.0265Z" fill="#000923"/>
<path d="M41.0167 50.9028C40.5878 50.9028 40.1522 50.8004 39.75 50.585C38.4922 49.9131 38.0411 48.388 38.7411 47.1808L47.7878 31.5932C48.4878 30.3859 50.0767 29.953 51.3344 30.6248C52.5922 31.2967 53.0433 32.8218 52.3433 34.029L43.2967 49.6166C42.8189 50.4378 41.9322 50.9028 41.0167 50.9028Z" fill="#000923"/>
<path d="M83.5744 48.7059C82.9122 48.7059 82.2478 48.4649 81.7389 47.9807C80.7166 47.0081 80.7078 45.4233 81.7211 44.4421L95.5411 31.0515C96.5544 30.0703 98.2055 30.0618 99.2277 31.0344C100.25 32.007 100.259 33.5918 99.2455 34.573L85.4255 47.9636C84.9166 48.4585 84.2455 48.7059 83.5722 48.7059H83.5744Z" fill="#000923"/>
<path d="M97.3944 35.3792C96.7322 35.3792 96.0678 35.1381 95.5589 34.654L81.6078 21.3892C80.5855 20.4165 80.5767 18.8318 81.59 17.8506C82.6033 16.8694 84.2544 16.8609 85.2766 17.8335L99.2277 31.0983C100.25 32.071 100.259 33.6558 99.2455 34.6369C98.7366 35.1318 98.0655 35.3792 97.3922 35.3792H97.3944Z" fill="#000923"/>
<path opacity="0.5" d="M50.1078 51.0265C48.6678 51.0265 47.5011 49.9067 47.5011 48.5246V2.50195C47.5011 1.1198 48.6678 0 50.1078 0C51.5478 0 52.7144 1.1198 52.7144 2.50195V48.5224C52.7144 49.9046 51.5478 51.0244 50.1078 51.0244V51.0265Z" fill="#00D1F3"/>
<path opacity="0.5" d="M59.2255 51.0265C58.3122 51.0265 57.4255 50.5658 56.9477 49.7468L47.8744 34.1976C47.17 32.9924 47.6188 31.4674 48.8744 30.7912C50.1322 30.1151 51.7188 30.546 52.4233 31.7511L61.4966 47.3003C62.2011 48.5054 61.7522 50.0304 60.4966 50.7066C60.0944 50.9241 59.6566 51.0265 59.2255 51.0265Z" fill="#FFD300"/>
<path d="M41.0167 51.0265C40.5878 51.0265 40.1522 50.9242 39.75 50.7087C38.4922 50.0369 38.0411 48.5118 38.7411 47.3046L47.7878 31.717C48.4878 30.5097 50.0767 30.0767 51.3344 30.7486C52.5922 31.4205 53.0433 32.9455 52.3433 34.1528L43.2967 49.7404C42.8189 50.5616 41.9322 51.0265 41.0167 51.0265Z" fill="#000923"/>
<path d="M50.0633 35.4411C49.63 35.4411 49.19 35.3365 48.7856 35.119C47.53 34.4407 47.0856 32.9156 47.7922 31.7105L56.97 16.0654C57.6767 14.8602 59.2656 14.4337 60.5211 15.1119C61.7767 15.7902 62.2211 17.3153 61.5144 18.5204L52.3367 34.1656C51.8589 34.9825 50.9722 35.4411 50.0611 35.4411H50.0633Z" fill="#000923"/>
</svg>
