<svg data-testid="starplus-logo" fill="none" height="100%" viewBox="0 0 51 32" xmlns="http://www.w3.org/2000/svg"><path class="fill-icon_primary" d="M37.8874 12.7854H31.2045C31.117 12.7854 31.0733 12.7395 31.0516 12.6477L28.9543 6L26.8987 12.6477C26.8766 12.7395 26.8329 12.7854 26.7457 12.7854H20.0615L25.4574 16.9121C25.5157 16.9577 25.5957 16.9577 25.654 16.9121C27.1394 15.9491 28.4721 15.2614 31.2482 14.5286C28.7139 16.592 26.2236 18.9296 24.17 21.6345C24.1092 21.7074 24.0645 21.7935 24.0392 21.8867L23.4492 23.7889L28.8451 19.686C28.9326 19.6173 28.9763 19.6173 29.0634 19.686L34.4593 23.7879L32.4061 17.0946C32.384 17.0029 32.4061 16.957 32.4715 16.9114L37.8874 12.7854Z" fill="#86898F"></path><path class="fill-icon_primary" d="M43.5625 11.0658C44.6546 11.0658 45.3537 11.6617 45.3537 12.6475C45.3537 13.6792 44.6546 14.4124 43.5625 14.4124H41.8161V11.0658H43.5625ZM44.9387 16.7508C46.8173 16.4985 48.3685 14.8023 48.3685 12.6475C48.3685 9.85086 46.5553 8.31505 43.628 8.31505H38.8437V22.3895H41.8161V16.8194L45.3761 22.3895H48.8275L44.9387 16.7508ZM21.1322 8.31505H12.2855V11.1576H15.1908V22.3895H18.2272V11.1576H21.1328L21.1322 8.31505ZM6.69675 13.4735C5.84474 13.0609 5.51723 12.6254 5.51723 12.0505C5.51723 11.3856 6.06308 10.8356 6.87136 10.8584C7.6142 10.8815 8.15972 11.2938 8.57539 12.2814L11.1328 11.1117C10.4337 9.23184 9.01377 8.13184 6.71981 8.13184C4.29498 8.13184 2.50382 9.8039 2.50382 12.0516C2.50382 13.5874 3.20292 14.8482 4.99408 15.787L6.78558 16.7269C7.78915 17.2535 8.26957 17.6448 8.26957 18.4239C8.26957 19.2493 7.6142 19.8469 6.78423 19.8469C5.88848 19.8469 5.0802 19.3197 4.70895 18.1276L2 18.9529C2.61028 21.2682 4.42483 22.6204 6.78423 22.6204C9.33993 22.6204 11.306 20.9014 11.306 18.4257C11.306 16.5231 10.3449 15.2395 8.40078 14.2989L6.69675 13.4735Z" fill="#86898F"></path></svg>